<svg width="19" height="18" viewBox="0 0 19 18" fill="none" xmlns="http://www.w3.org/2000/svg">
<rect width="19" height="18" fill="#1E1E1E"/>
<g clip-path="url(#clip0_0_1)">
<rect x="-34.1733" y="-432" width="393" height="852" rx="24" fill="white"/>
<g clip-path="url(#clip1_0_1)">
<rect x="-14.1733" y="-15" width="48" height="48" rx="24" fill="#F7F7F7"/>
<path d="M9.98009 3.72055C12.1325 3.72055 13.8402 5.02756 14.4885 6.97159H18.8267C18.0405 2.81579 14.5568 0 10.0149 0C4.85694 0 0.826721 3.85506 0.826721 9.01713C0.826721 14.1792 4.75512 18 10.0149 18C14.455 18 18.007 15.1842 18.7932 10.9941H14.4885C13.8737 12.9382 12.166 14.2795 10.0136 14.2795C7.04153 14.2795 4.95876 12.0334 4.95876 9.01713C4.96005 5.96658 7.00931 3.72055 9.98009 3.72055Z" fill="#0052FF"/>
</g>
</g>
<defs>
<clipPath id="clip0_0_1">
<rect x="-34.1733" y="-432" width="393" height="852" rx="24" fill="white"/>
</clipPath>
<clipPath id="clip1_0_1">
<rect width="353" height="437" fill="white" transform="translate(-14.1733 -143)"/>
</clipPath>
</defs>
</svg>
