<svg xmlns="http://www.w3.org/2000/svg" width="19" height="18" viewBox="0 0 19 18" fill="none">
<path d="M1.37964 13.9384C1.37964 13.4323 1.50863 12.9345 1.75443 12.492L6.90936 3.21317C7.3663 2.39068 8.16136 1.81032 9.08398 1.6258V1.6258C9.4992 1.54275 9.92675 1.54275 10.342 1.6258V1.6258C11.2646 1.81032 12.0596 2.39068 12.5166 3.21317L17.6715 12.492C17.9173 12.9345 18.0463 13.4323 18.0463 13.9384V13.9384C18.0463 15.5833 16.7129 16.9167 15.068 16.9167H4.35789C2.71305 16.9167 1.37964 15.5833 1.37964 13.9384V13.9384Z" stroke="#F23152" stroke-width="1.5"/>
<path d="M9.71295 6.49992L9.71295 9.83325" stroke="#F23152" stroke-width="1.5" stroke-linecap="round" stroke-linejoin="round"/>
<path d="M9.71295 12.3333L9.71295 12.75" stroke="#F23152" stroke-width="1.5" stroke-linecap="round" stroke-linejoin="round"/>
</svg>